<?xml version="1.0" ?>
<!DOCTYPE svg PUBLIC '-//W3C//DTD SVG 1.1//EN' 'http://www.w3.org/Graphics/SVG/1.1/DTD/svg11.dtd'><svg
  enable-background="new 0 0 128 128" id="Слой_1" version="1.1" viewBox="0 0 128 128" xml:space="preserve"
  xmlns="http://www.w3.org/2000/svg" xmlns:xlink="http://www.w3.org/1999/xlink">
  <g>
    <g>
      <path
        d="M101,8.1V3H32v14h69v-4.9c9,1,16,8.6,16,17.9v44c0,4.2-1.4,8.2-4,11.3V32H15v64h27v2h-8v4h8v6h44v-6h21    c5.5,0,10,4.5,10,10c0,5.5-4.5,10-10,10H9v4h98c7.7,0,14-6.3,14-14c0-7.7-6.3-14-14-14H86v-2h27v-5c5.1-4.2,8-10.3,8-17V30    C121,18.5,112.2,9.1,101,8.1z M97,13H36V7h61V13z M82,104H46v-8h36V104z M109,92H19V36h90V92z" />
      <path d="M106,39H22v50h84V39z M66,43h16v42H66V43z M62,85H46V43h16V85z M26,43h16v42H26V43z M102,85H86V43h16V85z" />
    </g>
  </g>
</svg>