<svg width="128" height="128" viewBox="0 0 128 128" fill="none" xmlns="http://www.w3.org/2000/svg">
  <path
    d="M63.3882 76.5742C68.7603 76.5742 73.1152 72.2193 73.1152 66.8472C73.1152 61.4751 68.7603 57.1201 63.3882 57.1201C58.0161 57.1201 53.6611 61.4751 53.6611 66.8472C53.6611 72.2193 58.0161 76.5742 63.3882 76.5742Z"
    stroke="#363636" stroke-width="3" stroke-miterlimit="10" />
  <path
    d="M63.3882 52.9058C65.0879 52.9058 66.4658 51.5279 66.4658 49.8281C66.4658 48.1284 65.0879 46.7505 63.3882 46.7505C61.6885 46.7505 60.3105 48.1284 60.3105 49.8281C60.3105 51.5279 61.6885 52.9058 63.3882 52.9058Z"
    stroke="#363636" stroke-width="2" stroke-miterlimit="10" />
  <path
    d="M65.5491 52.0123C66.76 50.8194 66.7746 48.8708 65.5818 47.6599C64.389 46.4491 62.4404 46.4344 61.2295 47.6273C60.0186 48.8201 60.004 50.7687 61.1968 51.9796C62.3897 53.1905 64.3383 53.2051 65.5491 52.0123Z"
    stroke="#363636" stroke-width="2" stroke-miterlimit="10" />
  <path
    d="M81.9856 62.5522C82.7165 61.0224 82.0689 59.1898 80.5392 58.4589C79.0094 57.728 77.1768 58.3756 76.4459 59.9054C75.715 61.4352 76.3626 63.2678 77.8924 63.9987C79.4221 64.7296 81.2548 64.082 81.9856 62.5522Z"
    stroke="#363636" stroke-width="1.99489" stroke-miterlimit="10" />
  <path
    d="M75.9833 81.3254C76.3448 79.6645 75.2915 78.0251 73.6307 77.6636C71.9698 77.302 70.3304 78.3554 69.9689 80.0162C69.6073 81.6771 70.6607 83.3165 72.3215 83.678C73.9823 84.0395 75.6218 82.9862 75.9833 81.3254Z"
    stroke="#363636" stroke-width="2" stroke-miterlimit="10" />
  <path
    d="M54.6186 83.686C56.2794 83.3245 57.3327 81.6851 56.9712 80.0242C56.6097 78.3634 54.9703 77.3101 53.3094 77.6716C51.6486 78.0331 50.5953 79.6726 50.9568 81.3334C51.3183 82.9942 52.9577 84.0476 54.6186 83.686Z"
    stroke="#363636" stroke-width="2" stroke-miterlimit="10" />
  <path
    d="M48.795 64.6221C50.3244 63.8804 50.963 62.0394 50.2213 60.51C49.4797 58.9806 47.6387 58.342 46.1093 59.0836C44.5799 59.8253 43.9413 61.6663 44.6829 63.1957C45.4245 64.7251 47.2656 65.3637 48.795 64.6221Z"
    stroke="#363636" stroke-width="2" stroke-miterlimit="10" />
  <path
    d="M63.4729 92.4564C77.6166 92.4564 89.0823 80.9906 89.0823 66.847C89.0823 52.7033 77.6166 41.2375 63.4729 41.2375C49.3292 41.2375 37.8635 52.7033 37.8635 66.847C37.8635 80.9906 49.3292 92.4564 63.4729 92.4564Z"
    stroke="#363636" stroke-width="3" stroke-miterlimit="10" />
  <path
    d="M40.5811 30.7693C47.1529 26.9293 49.3411 23.5199 52.5176 27.2399C53.4776 28.4964 58.1646 25.2988 59.7458 23.7105C60.7905 22.6517 60.4517 20.887 60.0635 19.8493C59.9662 19.5702 59.9431 19.2706 59.9963 18.9799C60.0495 18.6891 60.1772 18.4171 60.367 18.1905L62.8235 15.2117C63.0084 14.9921 63.2457 14.8227 63.5134 14.719C63.7811 14.6154 64.0707 14.5809 64.3552 14.6188L65.9011 14.8235C66.3211 14.8831 66.7482 14.7844 67.0993 14.5465C67.4505 14.3086 67.7006 13.9486 67.801 13.5365C67.9014 13.1244 67.8449 12.6897 67.6424 12.3169C67.44 11.9442 67.1062 11.6601 66.7058 11.5199C64.7364 10.814 60.7694 9.45876 59.5976 9.47287C58.3096 9.58184 57.0394 9.84489 55.8141 10.2564C55.4003 10.3844 54.9532 10.349 54.5646 10.1576L53.3435 9.55758C53.1244 9.45094 52.885 9.39261 52.6414 9.38652C52.3979 9.38043 52.1558 9.42673 51.9317 9.52228C45.7688 12.2103 39.791 15.3042 34.0376 18.7835L33.6635 19.0164C28.0051 22.6675 22.5956 26.6905 17.4705 31.0588C17.2844 31.2186 17.135 31.4168 17.0327 31.6397C16.9303 31.8627 16.8774 32.1052 16.8776 32.3505V33.7058C16.8789 34.1384 16.7148 34.5551 16.4188 34.8705C15.5116 35.7889 14.7177 36.8127 14.0541 37.9199C13.5317 38.9646 13.0093 43.1293 12.7693 45.2046C12.732 45.6206 12.8482 46.0359 13.0962 46.3719C13.3442 46.708 13.7067 46.9415 14.1152 47.0284C14.5237 47.1153 14.9499 47.0496 15.3132 46.8436C15.6765 46.6376 15.9518 46.3057 16.087 45.9105L16.5882 44.4705C16.6794 44.1981 16.8378 43.9531 17.0488 43.7582C17.2597 43.5632 17.5165 43.4246 17.7952 43.3552L21.5293 42.4235C21.8159 42.352 22.1161 42.356 22.4007 42.4352C22.6852 42.5144 22.9444 42.666 23.1529 42.8752C23.9364 43.6588 25.3482 44.7599 26.7599 44.287C28.8776 43.5811 33.8188 40.7576 33.1129 39.3458C31.1929 34.8705 35.2305 34.4046 41.5835 30.1693"
    stroke="#363636" stroke-width="3" stroke-miterlimit="10" />
  <path
    d="M65.2376 23.4353C64.8493 23.8941 65.0399 24.2753 65.2376 24.847C65.5976 25.8988 65.5764 26.6047 64.5317 27.6706C62.9646 29.2659 56.0611 34.7294 53.9435 33.3176C50.8305 29.7035 50.0752 31.7294 43.814 35.4353C38.167 39.0847 36.7129 38.8659 38.1246 42.4941C38.2328 42.7587 38.2764 43.0452 38.2519 43.33C38.2273 43.6148 38.1353 43.8896 37.9835 44.1317C36.3952 46.5882 31.4682 48.5788 29.5905 49.2C28.1788 49.6729 26.4917 50.3364 25.7082 49.5529C25.2571 49.2804 24.7851 49.0443 24.2964 48.847C23.2164 48.5717 22.6305 48.6141 22.1788 49.6376C20.0258 54.5647 19.7646 59.2235 19.694 64.9059C19.2776 88.4541 37.6517 109.376 61.1788 110.562C72.7653 111.27 84.1584 107.346 92.8517 99.6534C101.545 91.9609 106.826 81.13 107.534 69.5435C108.242 57.957 104.318 46.5639 96.6251 37.8706C88.9326 29.1773 78.1018 23.8959 66.5152 23.1882C65.5129 23.1176 65.2376 23.4353 65.2376 23.4353Z"
    stroke="#363636" stroke-width="3" stroke-miterlimit="10" />
</svg>