<svg width="121" height="120" viewBox="0 0 121 120" fill="none" xmlns="http://www.w3.org/2000/svg">
<path d="M60.4999 105.882C85.8401 105.882 106.382 85.3402 106.382 60C106.382 34.6599 85.8401 14.1177 60.4999 14.1177C35.1598 14.1177 14.6176 34.6599 14.6176 60C14.6176 85.3402 35.1598 105.882 60.4999 105.882Z" stroke="#363636" stroke-width="3" stroke-linecap="round" stroke-linejoin="round"/>
<path d="M60.8083 74.3719C67.5115 74.201 72.8071 68.6285 72.6362 61.9253C72.4654 55.2221 66.8928 49.9265 60.1896 50.0974C53.4864 50.2682 48.1909 55.8408 48.3617 62.544C48.5326 69.2472 54.1051 74.5427 60.8083 74.3719Z" stroke="#363636" stroke-width="2" stroke-linecap="round" stroke-linejoin="round"/>
<path d="M60.683 69.4534C64.6698 69.3518 67.8194 66.0374 67.7178 62.0506C67.6162 58.0637 64.3018 54.9141 60.315 55.0157C56.3281 55.1173 53.1785 58.4317 53.2801 62.4185C53.3818 66.4054 56.6961 69.555 60.683 69.4534Z" stroke="#363636" stroke-width="2" stroke-linecap="round" stroke-linejoin="round"/>
<path d="M85.9893 67.3129C92.6317 65.6541 101.971 65.0329 94.3611 77.9647C86.7517 90.8964 71.5329 100.793 70.7705 87.0988C70.0082 73.4047 79.9046 68.8306 85.9893 67.3129Z" stroke="#363636" stroke-width="3" stroke-linecap="round" stroke-linejoin="round"/>
<path d="M35.0105 67.3129C28.3682 65.647 19.0294 65.0258 26.6176 77.9646C34.2058 90.9035 49.4458 100.793 50.2082 87.0988C50.9705 73.4046 41.0952 68.8305 35.0105 67.3129Z" stroke="#363636" stroke-width="3" stroke-linecap="round" stroke-linejoin="round"/>
<path d="M60.147 43.4683C63.3729 43.4683 66.6058 44.273 70.6364 48.3107C74.667 52.3483 73.8623 51.5366 84.3587 52.3483C94.8552 53.1601 98.8858 50.7318 93.2387 41.8589C87.5282 32.0683 77.0952 24.106 60.147 24.106C44.0035 24.106 32.6176 33.0848 27.0552 42.6707C21.4082 51.5295 25.4458 53.153 35.9352 52.3483C46.4246 51.5436 45.6199 52.3483 49.6576 48.3107C53.6952 44.273 56.9211 43.4683 60.147 43.4683Z" stroke="#363636" stroke-width="3" stroke-linecap="round" stroke-linejoin="round"/>
</svg>
