<svg width="120" height="120" viewBox="0 0 120 120" fill="none" xmlns="http://www.w3.org/2000/svg">
<path d="M85.2705 56.1953H34.7293C22.0593 56.1953 11.7882 66.4664 11.7882 79.1365C11.7882 91.8066 22.0593 102.078 34.7293 102.078H85.2705C97.9406 102.078 108.212 91.8066 108.212 79.1365C108.212 66.4664 97.9406 56.1953 85.2705 56.1953Z" stroke="#363636" stroke-width="3" stroke-linecap="round" stroke-linejoin="round"/>
<path d="M35.3435 56.1953V48.833H27.247L31.6588 28.2283H60.367V48.833H54.4799L54.727 56.1953" stroke="#363636" stroke-width="3" stroke-linecap="round" stroke-linejoin="round"/>
<path d="M35.3435 34.1152H48.5929" stroke="#363636" stroke-width="2" stroke-linecap="round" stroke-linejoin="round"/>
<path d="M35.3435 38.5342H48.5929" stroke="#363636" stroke-width="2" stroke-linecap="round" stroke-linejoin="round"/>
<path d="M35.3435 42.9458H48.5929" stroke="#363636" stroke-width="2" stroke-linecap="round" stroke-linejoin="round"/>
<path d="M80.6117 55.0941V46.6306" stroke="#363636" stroke-width="3" stroke-linecap="round" stroke-linejoin="round"/>
<path d="M86.4988 55.0941V46.6306" stroke="#363636" stroke-width="3" stroke-linecap="round" stroke-linejoin="round"/>
<path d="M83.5552 46.6235C91.4808 46.6235 97.9058 40.1986 97.9058 32.273C97.9058 24.3473 91.4808 17.9224 83.5552 17.9224C75.6296 17.9224 69.2046 24.3473 69.2046 32.273C69.2046 40.1986 75.6296 46.6235 83.5552 46.6235Z" stroke="#363636" stroke-width="3" stroke-linecap="round" stroke-linejoin="round"/>
<path d="M83.5552 41.8447C88.8416 41.8447 93.127 37.5593 93.127 32.2729C93.127 26.9866 88.8416 22.7012 83.5552 22.7012C78.2689 22.7012 73.9835 26.9866 73.9835 32.2729C73.9835 37.5593 78.2689 41.8447 83.5552 41.8447Z" stroke="#363636" stroke-width="2" stroke-linecap="round" stroke-linejoin="round"/>
<path d="M84.3105 33.5788C85.3905 32.64 86.8658 27.4871 86.8658 27.4871C86.8658 27.4871 81.7129 30.4306 81.7129 32.64C81.7127 32.942 81.8057 33.2367 81.9792 33.4839C82.1526 33.7311 82.3981 33.9188 82.6821 34.0215C82.9661 34.1241 83.2748 34.1367 83.5662 34.0575C83.8577 33.9783 84.1176 33.8111 84.3105 33.5788V33.5788Z" stroke="#363636" stroke-width="2" stroke-linecap="round" stroke-linejoin="round"/>
<path d="M57.8823 95.5623C70.5105 95.5623 85.207 96.5153 91.5529 94.5106C100.235 91.7647 98.8235 81.8823 98.8235 81.8823C98.8235 81.8823 97.3341 87.1411 90.5011 90.2964C78.5223 95.8306 57.8823 95.5623 57.8823 95.5623Z" stroke="#363636" stroke-width="2" stroke-linecap="round" stroke-linejoin="round"/>
</svg>
