<svg width="120" height="120" viewBox="0 0 120 120" fill="none" xmlns="http://www.w3.org/2000/svg">
<path d="M59.2093 69.4093C62.2658 69.4093 64.7435 66.9316 64.7435 63.8752C64.7435 60.8188 62.2658 58.3411 59.2093 58.3411C56.1529 58.3411 53.6752 60.8188 53.6752 63.8752C53.6752 66.9316 56.1529 69.4093 59.2093 69.4093Z" stroke="#363636" stroke-width="3" stroke-miterlimit="10"/>
<path d="M59.2093 69.4093C62.2658 69.4093 64.7435 66.9316 64.7435 63.8752C64.7435 60.8188 62.2658 58.3411 59.2093 58.3411C56.1529 58.3411 53.6752 60.8188 53.6752 63.8752C53.6752 66.9316 56.1529 69.4093 59.2093 69.4093Z" stroke="#363636" stroke-width="3" stroke-miterlimit="10"/>
<path d="M43.7646 76.9411C41.2799 73.5882 39.0211 68.3788 39.0211 63.8894C39.0207 59.6822 40.3356 55.5803 42.7818 52.1574C45.228 48.7345 48.6831 46.1621 52.6636 44.8C56.6441 43.4379 60.9509 43.3543 64.9813 44.5609C69.0116 45.7675 72.564 48.204 75.1411 51.5293C75.1411 51.5293 91.2494 51.6423 95.2023 51.6423C99.1552 51.6423 104.696 53.2235 103.906 63.5082C103.115 73.7929 99.1623 75.3741 88.8776 75.3741H76.2352C74.0047 78.4094 68.9364 81.727 65.1599 83.287" stroke="#363636" stroke-width="3" stroke-miterlimit="10"/>
<path d="M57.6282 43.7083L42.9952 29.4636" stroke="#363636" stroke-width="3" stroke-linecap="round" stroke-linejoin="round"/>
<path d="M45.3529 49.2211L34.2917 38.167" stroke="#363636" stroke-width="3" stroke-linecap="round" stroke-linejoin="round"/>
<path d="M42.5999 20.3718L25.1929 37.7718" stroke="#363636" stroke-width="2" stroke-linecap="round" stroke-linejoin="round"/>
<path d="M46.5529 25.9058L30.7341 41.7246" stroke="#363636" stroke-width="3" stroke-linecap="round" stroke-linejoin="round"/>
<path d="M37.0588 17.7905L22.4258 32.4235" stroke="#363636" stroke-width="3" stroke-linecap="round" stroke-linejoin="round"/>
<path d="M26.3788 21.3481L30.1411 24.7081" stroke="#363636" stroke-width="3" stroke-linecap="round" stroke-linejoin="round"/>
<path d="M60.7905 43.7083L75.4235 29.4636" stroke="#363636" stroke-width="3" stroke-linecap="round" stroke-linejoin="round"/>
<path d="M73.0658 49.2211L84.127 38.167" stroke="#363636" stroke-width="3" stroke-linecap="round" stroke-linejoin="round"/>
<path d="M75.8188 20.3718L93.2258 37.7718" stroke="#363636" stroke-width="2" stroke-linecap="round" stroke-linejoin="round"/>
<path d="M71.8658 25.9058L87.6846 41.7246" stroke="#363636" stroke-width="3" stroke-linecap="round" stroke-linejoin="round"/>
<path d="M81.3599 17.7905L95.9929 32.4235" stroke="#363636" stroke-width="3" stroke-linecap="round" stroke-linejoin="round"/>
<path d="M93.0399 21.3481L89.2776 24.7081" stroke="#363636" stroke-width="3" stroke-linecap="round" stroke-linejoin="round"/>
<path d="M103.976 58.3411H107.859" stroke="#363636" stroke-width="3" stroke-linecap="round" stroke-linejoin="round"/>
<path d="M103.976 67.0376H107.859" stroke="#363636" stroke-width="3" stroke-linecap="round" stroke-linejoin="round"/>
<path d="M13.7223 68.2306C16.0941 64.2776 19.2564 61.8776 26.3788 64.2776C33.5011 66.6776 35.0823 74.5553 35.0823 74.5553C35.0823 74.5553 77.7952 86.4212 81.7552 88.0023C85.7152 89.5835 91.9058 91.5317 89.6682 97.4964C87.2964 103.849 77.8023 100.659 71.4776 98.287L32.7105 84.0494C32.7105 84.0494 26.3576 88.7929 20.8446 87.2117C15.3317 85.6306 12.1411 84.0494 12.1411 76.1364L16.8846 80.88L24.7976 80.0894L26.3788 72.967L21.6352 67.4329L13.7223 68.2306Z" stroke="#363636" stroke-width="3" stroke-linecap="round" stroke-linejoin="round"/>
</svg>
