<?xml version="1.0" ?>
<!DOCTYPE svg PUBLIC '-//W3C//DTD SVG 1.1//EN' 'http://www.w3.org/Graphics/SVG/1.1/DTD/svg11.dtd'><svg
  enable-background="new 0 0 128 128" id="Слой_1" version="1.1" viewBox="0 0 128 128" xml:space="preserve"
  xmlns="http://www.w3.org/2000/svg" xmlns:xlink="http://www.w3.org/1999/xlink">
  <g>
    <path
      d="M32.9,111.5l-6.5,7.4c-1.1,1.3-1.4,3-0.7,4.6c0.7,1.5,2.2,2.5,3.9,2.5h68.8c1.7,0,3.2-1,3.9-2.5   c0.7-1.5,0.4-3.3-0.7-4.6l-11.8-13.5C96.7,98.7,101,89.4,101,79c0-19.7-15.5-35.9-35-36.9l0-6c2.9-0.9,5-3.5,5-6.7c0-3.9-3.1-7-7-7   s-7,3.1-7,7c0,3.2,2.1,5.8,5,6.7l0,6c-19.5,1-35,17.2-35,36.9c0,10.4,4.3,19.7,11.2,26.5l-2.5,2.9C18.3,101.1,6,84,6,64   c0-26.5,21.5-48,48-48h41.7c0.9,4.3,4.7,7.5,9.3,7.5h7V24h4v-3.5h8v-4h-8v-5h8v-4h-8V4h-4v0.5h-7c-4.6,0-8.4,3.2-9.3,7.5H54   C25.3,12,2,35.3,2,64C2,85.2,14.7,103.4,32.9,111.5z M98.6,121.6c0,0,0.1,0.1,0,0.3c-0.1,0.1-0.2,0.1-0.2,0.1H29.6   c-0.1,0-0.2,0-0.2-0.1c-0.1-0.1,0-0.2,0-0.3l7.4-8.5C42.2,115,48,116,54,116h10c0,0,0,0,0,0c8.6,0,16.5-3,22.8-7.9L98.6,121.6z    M66,78.2l0-19.6c10.4,1,18.5,9.8,18.5,20.4c0,5.4-2.1,10.3-5.6,14L66,78.2z M75.9,95.7c-3.4,2.4-7.5,3.8-11.9,3.8   s-8.5-1.4-11.9-3.8L64,82L75.9,95.7z M62,78.2L49.1,93c-3.4-3.7-5.6-8.6-5.6-14c0-10.6,8.1-19.4,18.5-20.4L62,78.2z M49.4,98.7   c4.1,3,9.1,4.8,14.6,4.8s10.5-1.8,14.6-4.8l5.6,6.4c-5.6,4.3-12.6,6.9-20.2,6.9v0h0c-7.6,0-14.6-2.6-20.1-6.9L49.4,98.7z M97,79   c0,9.2-3.8,17.5-9.8,23.5L81.6,96c4.3-4.4,6.9-10.4,6.9-17c0-12.8-9.9-23.4-22.5-24.4l0-8.5C83.3,47.1,97,61.5,97,79z M61,29.3   c0-1.7,1.3-3,3-3s3,1.3,3,3s-1.3,3-3,3S61,31,61,29.3z M31,79c0-17.5,13.7-31.9,31-32.9l0,8.5c-12.6,1-22.5,11.6-22.5,24.4   c0,6.6,2.6,12.6,6.9,17l-5.6,6.4C34.8,96.5,31,88.2,31,79z M41.2,108.1c1.5,1.2,3.1,2.3,4.8,3.2c-2.2-0.4-4.3-0.9-6.3-1.5   L41.2,108.1z M105,8.5h7v11h-7c-3,0-5.5-2.5-5.5-5.5C99.5,11,102,8.5,105,8.5z"
      fill="#000" />
  </g>
</svg>