<svg width="94" height="112" viewBox="0 0 94 112" fill="none" xmlns="http://www.w3.org/2000/svg">
<path d="M32.0473 8.88055L43.2657 2.40363C44.0749 1.93644 45.0439 1.8227 45.9597 2.08742C46.8754 2.35214 47.6629 2.97364 48.1488 3.81521C48.1933 3.89238 48.2066 3.98341 48.1856 4.06828C48.1646 4.15314 48.1112 4.22489 48.037 4.26773L31.276 13.9447C31.2018 13.9875 31.113 13.9979 31.029 13.9737C30.945 13.9494 30.8728 13.8924 30.8282 13.8152V13.8152C30.3424 12.9736 30.1978 11.981 30.4265 11.0555C30.6551 10.1301 31.2381 9.34774 32.0473 8.88055V8.88055Z" stroke="#363636" stroke-width="2" stroke-linecap="round" stroke-linejoin="round"/>
<path d="M50.391 7.35959L33.5167 17.102C33.4584 17.1356 33.4162 17.1916 33.3993 17.2575C33.3824 17.3234 33.3922 17.3939 33.4266 17.4534L37.6183 24.7138C38.7695 26.701 40.5424 28.2505 42.6509 29.1122C44.7594 29.974 47.0804 30.0976 49.2393 29.4631L50.685 31.9671C50.7569 32.0917 50.8742 32.1831 51.0112 32.2214C51.1482 32.2597 51.2937 32.2417 51.4155 32.1714L54.6988 30.2757C54.8207 30.2054 54.909 30.0884 54.9443 29.9506C54.9797 29.8128 54.9591 29.6655 54.8872 29.541L53.5201 27.173C55.3717 25.6715 55.7533 24.0407 56.1722 21.6647C56.5911 19.2886 56.1537 16.8236 54.9388 14.7138L50.7471 7.45341C50.7297 7.42334 50.7066 7.39698 50.6792 7.37589C50.6517 7.35481 50.6205 7.33944 50.5873 7.33069C50.5541 7.32194 50.5196 7.31998 50.4859 7.32495C50.4522 7.32991 50.4199 7.34169 50.391 7.35959Z" stroke="#363636" stroke-width="3" stroke-miterlimit="10"/>
<path d="M60.4788 31.7151L50.7905 37.942C49.9633 38.4737 49.7023 39.5422 50.2076 40.3284L65.7182 64.4609C66.2236 65.2471 67.3039 65.4534 68.1311 64.9217L77.8194 58.6948C78.6467 58.1631 78.9077 57.0946 78.4024 56.3084L62.8917 32.1759C62.3864 31.3897 61.3061 31.1834 60.4788 31.7151Z" stroke="#363636" stroke-width="3" stroke-miterlimit="10"/>
<path d="M70.2613 35.053C70.4556 33.99 70.2363 32.8929 69.6481 31.9864C69.06 31.0798 68.1476 30.4323 67.0977 30.1765" stroke="#363636" stroke-width="2" stroke-linecap="round" stroke-linejoin="round"/>
<path d="M44.8742 56.7105L39.2342 48.4515C38.9274 48.0102 38.4592 47.7074 37.9309 47.6083C37.4027 47.5093 36.8566 47.622 36.4107 47.9221L30.7229 51.6667C30.49 51.8047 30.2869 51.9875 30.1252 52.2045C29.9634 52.4216 29.8464 52.6685 29.7807 52.9311C29.7151 53.1937 29.7022 53.4667 29.7427 53.7343C29.7833 54.0019 30.3928 54.9501 30.5333 55.1815L30.6109 55.2944L33.9215 53.1768C34.2666 52.9427 34.6901 52.8544 35.0999 52.9311C35.5097 53.0078 35.8727 53.2432 36.1098 53.5862L38.4674 57.2497C38.6807 57.6078 38.744 58.0356 38.6436 58.4401C38.5431 58.8446 38.287 59.1931 37.9309 59.4097L34.6204 61.5274L34.698 61.6403C35.0049 62.0816 36.1098 63.3534 36.9472 63.6672C37.4755 63.7662 38.0215 63.6535 38.4674 63.3534L44.1401 59.5199C44.3734 59.3843 44.5776 59.2038 44.7408 58.9889C44.9041 58.7741 45.0233 58.529 45.0915 58.2679C45.1597 58.0068 45.1757 57.7348 45.1384 57.4675C45.1011 57.2003 45.0113 56.943 44.8742 56.7105Z" stroke="#363636" stroke-width="2" stroke-linecap="round" stroke-linejoin="round"/>
<path d="M51.6687 54.604L53.1523 53.6496L45.4043 41.6067L43.9206 42.5611C43.6344 42.7307 43.3847 42.9554 43.1859 43.2222C42.9872 43.489 42.8433 43.7926 42.7626 44.1153C42.6819 44.4381 42.666 44.7736 42.7158 45.1026C42.7657 45.4315 42.8803 45.7473 43.053 46.0317L48.1981 53.9446C48.574 54.4883 49.1488 54.8623 49.7982 54.9857C50.4476 55.1091 51.1195 54.972 51.6687 54.604V54.604Z" stroke="#363636" stroke-width="2" stroke-linecap="round" stroke-linejoin="round"/>
<path d="M70.0147 31.8597C72.9935 28.9514 74.6523 29.9185 76.6358 32.5091C78.6194 35.0997 83.5888 43.182 84.9158 45.1232C87.5629 49.0055 91.537 45.1232 91.537 45.1232" stroke="#363636" stroke-width="3" stroke-linecap="round" stroke-linejoin="round"/>
<path d="M27.0597 57.4341L19.3373 58.507" stroke="#363636" stroke-width="2" stroke-linecap="round" stroke-linejoin="round"/>
<path d="M31.3796 63.7024L27.7232 70.5918" stroke="#363636" stroke-width="2" stroke-linecap="round" stroke-linejoin="round"/>
<path d="M29.2691 62.3188L23.2408 67.2671" stroke="#363636" stroke-width="2" stroke-linecap="round" stroke-linejoin="round"/>
<path d="M27.8361 59.947L20.9114 63.5258" stroke="#363636" stroke-width="2" stroke-linecap="round" stroke-linejoin="round"/>
<path d="M24.1874 51.2646H2.09921" stroke="#363636" stroke-width="3" stroke-linecap="round" stroke-linejoin="round"/>
<path d="M2.09921 103.5C2.09921 103.5 37.358 103.853 42.3345 103.5C52.2169 102.794 62.8051 101.382 61.3933 85.853C60.3557 74.4107 55.0404 69.6177 50.8051 61.853C50.8051 61.853 55.5345 70.846 54.3345 72.4413C52.2169 75.2648 2.09921 73.853 2.09921 73.853" stroke="#363636" stroke-width="3" stroke-linecap="round" stroke-linejoin="round"/>
<path d="M61.5204 89.7354C66.3345 89.7354 65.6286 93.6177 65.6286 102.088C65.6286 111.971 57.8639 109.147 50.8051 109.147C43.7463 109.147 45.511 103.655 45.511 103.655" stroke="#363636" stroke-width="3" stroke-linecap="round" stroke-linejoin="round"/>
<path d="M41.0427 91.5H3.39097C2.67755 91.5 2.09921 92.0783 2.09921 92.7918V97.2671C2.09921 97.9805 2.67755 98.5588 3.39097 98.5588H41.0427C41.7562 98.5588 42.3345 97.9805 42.3345 97.2671V92.7918C42.3345 92.0783 41.7562 91.5 41.0427 91.5Z" stroke="#363636" stroke-width="2.74" stroke-linecap="round" stroke-linejoin="round"/>
<path d="M45.158 89.3823L46.5698 85.8529L55.7463 79.5L60.8216 81.9141C60.8216 81.9141 62.0992 87.9706 59.2757 89.3823C56.4521 90.7941 47.9816 91.5 47.9816 91.5L45.158 89.3823Z" stroke="#363636" stroke-width="2.74" stroke-linecap="round" stroke-linejoin="round"/>
</svg>
